{
	"asset":{
		"generator":"Khronos glTF Blender I/O v3.6.27",
		"version":"2.0"
	},
	"scene":0,
	"scenes":[
		{
			"name":"Scene",
			"nodes":[
				0,
				1
			]
		}
	],
	"nodes":[
		{
			"mesh":0,
			"name":"Keyboard cable"
		},
		{
			"mesh":1,
			"name":"Mouse",
			"rotation":[
				0.00013008280075155199,
				0.9998509287834167,
				-0.0087256645783782,
				0.014905838295817375
			],
			"translation":[
				-0.09999998658895493,
				0.13999998569488525,
				0.9500000476837158
			]
		}
	],
	"materials":[
		{
			"doubleSided":true,
			"name":"Black rubber",
			"pbrMetallicRoughness":{
				"baseColorFactor":[
					0.007199297659099102,
					0.007199297659099102,
					0.007199297659099102,
					1
				],
				"metallicFactor":0,
				"roughnessFactor":0.7613636255264282
			}
		},
		{
			"doubleSided":true,
			"name":"matt plastic grey",
			"pbrMetallicRoughness":{
				"baseColorFactor":[
					0.800000011920929,
					0.800000011920929,
					0.800000011920929,
					1
				],
				"metallicFactor":0,
				"roughnessFactor":0.4000000059604645
			}
		},
		{
			"doubleSided":true,
			"name":"matt plastic black",
			"pbrMetallicRoughness":{
				"baseColorFactor":[
					0.0030954245012253523,
					0.0030954245012253523,
					0.0030954245012253523,
					1
				],
				"metallicFactor":0,
				"roughnessFactor":0.6384615302085876
			}
		},
		{
			"doubleSided":true,
			"name":"glossy plastic black",
			"pbrMetallicRoughness":{
				"baseColorFactor":[
					0.007193675730377436,
					0.007193675730377436,
					0.007193675730377436,
					1
				],
				"metallicFactor":0,
				"roughnessFactor":0.32594019174575806
			}
		},
		{
			"doubleSided":true,
			"name":"led",
			"pbrMetallicRoughness":{
				"baseColorFactor":[
					0.800000011920929,
					0.800000011920929,
					0.800000011920929,
					1
				],
				"metallicFactor":0,
				"roughnessFactor":0.4000000059604645
			}
		}
	],
	"meshes":[
		{
			"name":"Cylinder",
			"primitives":[
				{
					"attributes":{
						"POSITION":0,
						"NORMAL":1
					},
					"indices":2,
					"material":0
				}
			]
		},
		{
			"name":"Plane",
			"primitives":[
				{
					"attributes":{
						"POSITION":3,
						"NORMAL":4,
						"TEXCOORD_0":5
					},
					"indices":6,
					"material":1
				},
				{
					"attributes":{
						"POSITION":7,
						"NORMAL":8,
						"TEXCOORD_0":9
					},
					"indices":10,
					"material":2
				},
				{
					"attributes":{
						"POSITION":11,
						"NORMAL":12,
						"TEXCOORD_0":13
					},
					"indices":14,
					"material":3
				},
				{
					"attributes":{
						"POSITION":15,
						"NORMAL":16,
						"TEXCOORD_0":17
					},
					"indices":18,
					"material":4
				}
			]
		}
	],
	"accessors":[
		{
			"bufferView":0,
			"componentType":5126,
			"count":9664,
			"max":[
				0.7601751685142517,
				0.23981139063835144,
				0.5746557712554932
			],
			"min":[
				-0.22873617708683014,
				0.15977931022644043,
				-1.0473806858062744
			],
			"type":"VEC3"
		},
		{
			"bufferView":1,
			"componentType":5126,
			"count":9664,
			"type":"VEC3"
		},
		{
			"bufferView":2,
			"componentType":5123,
			"count":41718,
			"type":"SCALAR"
		},
		{
			"bufferView":3,
			"componentType":5126,
			"count":4830,
			"max":[
				0.22528257966041565,
				0.28615444898605347,
				0.41541042923927307
			],
			"min":[
				-0.18857252597808838,
				0.04996413365006447,
				-0.39306381344795227
			],
			"type":"VEC3"
		},
		{
			"bufferView":4,
			"componentType":5126,
			"count":4830,
			"type":"VEC3"
		},
		{
			"bufferView":5,
			"componentType":5126,
			"count":4830,
			"type":"VEC2"
		},
		{
			"bufferView":6,
			"componentType":5123,
			"count":24768,
			"type":"SCALAR"
		},
		{
			"bufferView":7,
			"componentType":5126,
			"count":32314,
			"max":[
				0.23607656359672546,
				0.28307485580444336,
				0.40588128566741943
			],
			"min":[
				-0.2118583768606186,
				0.0036983087193220854,
				-0.3930637538433075
			],
			"type":"VEC3"
		},
		{
			"bufferView":8,
			"componentType":5126,
			"count":32314,
			"type":"VEC3"
		},
		{
			"bufferView":9,
			"componentType":5126,
			"count":32314,
			"type":"VEC2"
		},
		{
			"bufferView":10,
			"componentType":5123,
			"count":109872,
			"type":"SCALAR"
		},
		{
			"bufferView":11,
			"componentType":5126,
			"count":1816,
			"max":[
				0.22739911079406738,
				0.26997894048690796,
				0.1999024748802185
			],
			"min":[
				-0.011910364031791687,
				0.1354701966047287,
				-0.13270986080169678
			],
			"type":"VEC3"
		},
		{
			"bufferView":12,
			"componentType":5126,
			"count":1816,
			"type":"VEC3"
		},
		{
			"bufferView":13,
			"componentType":5126,
			"count":1816,
			"type":"VEC2"
		},
		{
			"bufferView":14,
			"componentType":5123,
			"count":7680,
			"type":"SCALAR"
		},
		{
			"bufferView":15,
			"componentType":5126,
			"count":352,
			"max":[
				0.00562139181420207,
				0.2760961651802063,
				0.07863655686378479
			],
			"min":[
				-0.0020668411161750555,
				0.2689429819583893,
				0.07029271870851517
			],
			"type":"VEC3"
		},
		{
			"bufferView":16,
			"componentType":5126,
			"count":352,
			"type":"VEC3"
		},
		{
			"bufferView":17,
			"componentType":5126,
			"count":352,
			"type":"VEC2"
		},
		{
			"bufferView":18,
			"componentType":5123,
			"count":1524,
			"type":"SCALAR"
		}
	],
	"bufferViews":[
		{
			"buffer":0,
			"byteLength":115968,
			"byteOffset":0,
			"target":34962
		},
		{
			"buffer":0,
			"byteLength":115968,
			"byteOffset":115968,
			"target":34962
		},
		{
			"buffer":0,
			"byteLength":83436,
			"byteOffset":231936,
			"target":34963
		},
		{
			"buffer":0,
			"byteLength":57960,
			"byteOffset":315372,
			"target":34962
		},
		{
			"buffer":0,
			"byteLength":57960,
			"byteOffset":373332,
			"target":34962
		},
		{
			"buffer":0,
			"byteLength":38640,
			"byteOffset":431292,
			"target":34962
		},
		{
			"buffer":0,
			"byteLength":49536,
			"byteOffset":469932,
			"target":34963
		},
		{
			"buffer":0,
			"byteLength":387768,
			"byteOffset":519468,
			"target":34962
		},
		{
			"buffer":0,
			"byteLength":387768,
			"byteOffset":907236,
			"target":34962
		},
		{
			"buffer":0,
			"byteLength":258512,
			"byteOffset":1295004,
			"target":34962
		},
		{
			"buffer":0,
			"byteLength":219744,
			"byteOffset":1553516,
			"target":34963
		},
		{
			"buffer":0,
			"byteLength":21792,
			"byteOffset":1773260,
			"target":34962
		},
		{
			"buffer":0,
			"byteLength":21792,
			"byteOffset":1795052,
			"target":34962
		},
		{
			"buffer":0,
			"byteLength":14528,
			"byteOffset":1816844,
			"target":34962
		},
		{
			"buffer":0,
			"byteLength":15360,
			"byteOffset":1831372,
			"target":34963
		},
		{
			"buffer":0,
			"byteLength":4224,
			"byteOffset":1846732,
			"target":34962
		},
		{
			"buffer":0,
			"byteLength":4224,
			"byteOffset":1850956,
			"target":34962
		},
		{
			"buffer":0,
			"byteLength":2816,
			"byteOffset":1855180,
			"target":34962
		},
		{
			"buffer":0,
			"byteLength":3048,
			"byteOffset":1857996,
			"target":34963
		}
	],
	"buffers":[
		{
			"byteLength":1861044,
			"uri":"data:application/octet-stream;base64,"
		}
	]
}
